<svg width="32" height="32" xmlns="http://www.w3.org/2000/svg">

 <g>
  <title>Kart</title>
  <rect fill="none" id="canvas_background" height="402" width="582" y="-1" x="-1"/>
 </g>
 <g>
  <title>Layer 1</title>
  <path fill="#ffffff" id="svg_1" d="m27,22l-16,0a1,1 0 0 1 -0.94,-0.67l-5.77,-16.33l-3.29,0a1,1 0 0 1 0,-2l4,0a1,1 0 0 1 0.94,0.67l5.77,16.33l14.57,0l3.77,-11.32a1,1 0 1 1 1.9,0.64l-4,12a1,1 0 0 1 -0.95,0.68z"/>
  <path fill="#ffffff" id="svg_2" d="m28,10l-18,0a1,1 0 0 1 0,-2l18,0a1,1 0 0 1 0,2z"/>
  <path fill="#ffffff" id="svg_3" d="m26,14l-14,0a1,1 0 0 1 0,-2l14,0a1,1 0 0 1 0,2z"/>
  <path fill="#ffffff" id="svg_4" d="m25,18l-12,0a1,1 0 0 1 0,-2l12,0a1,1 0 0 1 0,2z"/>
  <path fill="#ffffff" id="svg_5" d="m25,29a3,3 0 1 1 3,-3a3,3 0 0 1 -3,3zm0,-4a1,1 0 1 0 1,1a1,1 0 0 0 -1,-1z"/>
  <path fill="#ffffff" id="svg_6" d="m13,29a3,3 0 1 1 3,-3a3,3 0 0 1 -3,3zm0,-4a1,1 0 1 0 1,1a1,1 0 0 0 -1,-1z"/>
 </g>
</svg>